<svg width="45" height="33" fill="none" xmlns="http://www.w3.org/2000/svg">
    <path d="M0 19.513v2.438h6.717v1.223h3.668v1.242h2.161c.188 0 .254.055.246.246v.958h1.274v.96c0 .192.055.243.246.243h3.426v3.661h1.208v1.243h1.215v1.21h4.845v-3.156h-2.415v-2.946h3.42v4.903h1.445v1.2h4.884V29.78h-2.422v-4.165h1.203v-1.208h2.481v1.173h4.15v-2.396h4.884v-2.453h-2.947v-1.196h-1.242v-7.342H37.24v-3.18h3.731V7.31h-2.227V5.576h4.157v-4.36h-3.438V0h-3.454v1.172h-2.43v1.25h-1.227v9.768h-3.653v-1.172h-2.466v1.172h-3.65v1.224h-2.437v1.222h-1.22v1.22h-2.422v1.219h-1.266v1.223H3.068v1.23L0 19.513zM37.384 2.809h1.22v1.223h-1.22V2.81zm-1.352 19.17h1.7v1.199h-1.7v-1.2z" fill="green"/>
</svg>
